<svg width="300" height="300" viewBox="0 0 300 300" fill="none" xmlns="http://www.w3.org/2000/svg">
<rect width="300" height="300" transform="translate(15 11)" fill="none"/>
<path d="M175.695 102.884L229.762 52.4739C231.264 51.0737 232.222 49.1875 232.466 47.1489C232.614 45.9206 232.498 44.6748 232.126 43.4949L231.92 42.8441C230.879 39.544 228.449 36.863 225.266 35.5042L224.656 35.2434C218.236 32.8283 211.006 34.1837 205.898 38.7602L157.068 82.5027C149.244 89.5122 151.803 102.346 161.719 105.817C166.561 107.512 171.943 106.382 175.695 102.884Z" fill="#F15672"/>
<path d="M175.695 102.884L229.762 52.4739C231.264 51.0737 232.222 49.1875 232.466 47.1489C232.614 45.9206 232.498 44.6748 232.126 43.4949L231.92 42.8441C230.879 39.544 228.449 36.863 225.266 35.5042L224.656 35.2434C218.236 32.8283 211.006 34.1837 205.898 38.7602L157.068 82.5027C149.244 89.5122 151.803 102.346 161.719 105.817C166.561 107.512 171.943 106.382 175.695 102.884Z" fill="url(#paint0_linear)"/>
<g filter="url(#filter0_d)">
<path d="M15.231 50.9594L15.0125 260.865C15.0056 267.52 20.3948 272.922 27.0505 272.931C33.7079 272.94 39.111 267.55 39.118 260.892L39.3092 77.1797C39.3322 55.1067 57.2308 37.2263 79.3039 37.2258L220.037 37.2229L223.496 37.5503C224.266 37.6232 225.022 37.8045 225.742 38.0889C226.488 38.3838 227.186 38.7863 227.816 39.2838L228.197 39.5849C228.78 40.0462 229.296 40.5871 229.729 41.1919C230.228 41.8894 230.611 42.6631 230.862 43.4829L231.085 44.2096C231.739 47.0435 231.472 50.0237 229.553 52.209C229.238 52.5671 228.887 52.9479 228.497 53.3501C225.61 56.3193 225.72 56.3173 228.739 53.4834C229.653 52.6257 230.755 51.585 232.089 50.3218C258.338 25.4665 256.196 11.0335 232.09 11.0302L55.1798 11.0056C33.1042 11.0025 15.254 28.8839 15.231 50.9594Z" fill="#F15672"/>
</g>
<path d="M154.343 82.1158C162.732 82.1046 170.242 83.2159 177.347 85.5055C183.358 87.4423 184.393 94.5224 179.9 98.7202L177.564 100.903C172.188 105.926 164.42 107.484 157.065 107.401C156.196 107.391 155.301 107.391 154.371 107.392C129.409 107.425 109.195 126.313 109.221 149.579C109.233 160.481 113.396 170.495 120.449 178.037C124.461 182.327 127.978 191.357 123.664 195.388L121.542 197.82L119.041 199.707C115.985 202.563 108.82 201.916 105.129 198.978C104.27 198.294 103.547 197.454 102.752 196.697C89.9953 184.562 82.123 167.949 82.1024 149.615C82.0605 112.389 114.404 82.1689 154.343 82.1158Z" fill="#F15672"/>
<path d="M137.305 202.116L83.2381 252.526C81.7364 253.926 80.7784 255.812 80.5335 257.851C80.386 259.079 80.5023 260.325 80.8745 261.505L81.0798 262.156C82.1208 265.456 84.5512 268.137 87.7337 269.496L88.3443 269.757C94.7638 272.172 101.994 270.816 107.102 266.24L155.932 222.497C163.756 215.488 161.197 202.654 151.281 199.183C146.439 197.488 141.057 198.618 137.305 202.116Z" fill="#F15672"/>
<path d="M137.305 202.116L83.2381 252.526C81.7364 253.926 80.7784 255.812 80.5335 257.851C80.386 259.079 80.5023 260.325 80.8745 261.505L81.0798 262.156C82.1208 265.456 84.5512 268.137 87.7337 269.496L88.3443 269.757C94.7638 272.172 101.994 270.816 107.102 266.24L155.932 222.497C163.756 215.488 161.197 202.654 151.281 199.183C146.439 197.488 141.057 198.618 137.305 202.116Z" fill="url(#paint1_linear)"/>
<g filter="url(#filter1_d)">
<path d="M297.769 254.041L297.987 44.1354C297.994 37.4797 292.605 32.0776 285.95 32.0687C279.292 32.0598 273.889 37.4502 273.882 44.1076L273.691 227.82C273.668 249.893 255.769 267.774 233.696 267.774L92.9631 267.777L89.504 267.45C88.7339 267.377 87.9778 267.196 87.2584 266.911C86.5124 266.616 85.8136 266.214 85.1843 265.716L84.8033 265.415C84.2198 264.954 83.7041 264.413 83.2712 263.808C82.7721 263.111 82.3894 262.337 82.1379 261.517L81.915 260.79C81.2606 257.956 81.5284 254.976 83.4474 252.791C83.7618 252.433 84.1126 252.052 84.5035 251.65C87.3896 248.681 87.2802 248.683 84.2611 251.517C83.3473 252.374 82.2448 253.415 80.9108 254.678C54.6616 279.533 56.8043 293.966 80.9097 293.97L257.82 293.994C279.896 293.997 297.746 276.116 297.769 254.041Z" fill="#F15672"/>
</g>
<path d="M158.657 222.884C150.268 222.895 142.758 221.784 135.653 219.494C129.642 217.558 128.607 210.478 133.1 206.28L135.436 204.097C140.812 199.074 148.58 197.516 155.935 197.599C156.804 197.609 157.699 197.609 158.629 197.608C183.591 197.575 203.805 178.687 203.779 155.421C203.767 144.519 199.604 134.505 192.551 126.963C188.539 122.673 185.022 113.643 189.336 109.612L191.458 107.18L193.959 105.293C197.015 102.437 204.18 103.084 207.871 106.022C208.73 106.706 209.453 107.546 210.248 108.303C223.005 120.438 230.877 137.051 230.898 155.385C230.94 192.611 198.596 222.831 158.657 222.884Z" fill="#F15672"/>
<defs>
<filter id="filter0_d" x="0.0125732" y="0.00537109" width="265.969" height="291.926" filterUnits="userSpaceOnUse" color-interpolation-filters="sRGB">
<feFlood flood-opacity="0" result="BackgroundImageFix"/>
<feColorMatrix in="SourceAlpha" type="matrix" values="0 0 0 0 0 0 0 0 0 0 0 0 0 0 0 0 0 0 127 0"/>
<feOffset dy="4"/>
<feGaussianBlur stdDeviation="7.5"/>
<feColorMatrix type="matrix" values="0 0 0 0 0 0 0 0 0 0 0 0 0 0 0 0 0 0 0.25 0"/>
<feBlend mode="normal" in2="BackgroundImageFix" result="effect1_dropShadow"/>
<feBlend mode="normal" in="SourceGraphic" in2="effect1_dropShadow" result="shape"/>
</filter>
<filter id="filter1_d" x="47.0187" y="21.0688" width="265.969" height="291.926" filterUnits="userSpaceOnUse" color-interpolation-filters="sRGB">
<feFlood flood-opacity="0" result="BackgroundImageFix"/>
<feColorMatrix in="SourceAlpha" type="matrix" values="0 0 0 0 0 0 0 0 0 0 0 0 0 0 0 0 0 0 127 0"/>
<feOffset dy="4"/>
<feGaussianBlur stdDeviation="7.5"/>
<feColorMatrix type="matrix" values="0 0 0 0 0 0 0 0 0 0 0 0 0 0 0 0 0 0 0.25 0"/>
<feBlend mode="normal" in2="BackgroundImageFix" result="effect1_dropShadow"/>
<feBlend mode="normal" in="SourceGraphic" in2="effect1_dropShadow" result="shape"/>
</filter>
<linearGradient id="paint0_linear" x1="122.864" y1="141.972" x2="319.624" y2="-37.8973" gradientUnits="userSpaceOnUse">
<stop offset="0.315355" stop-color="#F15672"/>
<stop offset="0.59375" stop-color="#302B4F" stop-opacity="0.54778"/>
<stop offset="0.796875" stop-color="#4E496B" stop-opacity="0"/>
<stop offset="1" stop-color="white" stop-opacity="0"/>
</linearGradient>
<linearGradient id="paint1_linear" x1="190.136" y1="163.028" x2="-6.62448" y2="342.897" gradientUnits="userSpaceOnUse">
<stop offset="0.315355" stop-color="#F15672"/>
<stop offset="0.59375" stop-color="#302B4F" stop-opacity="0.54778"/>
<stop offset="0.796875" stop-color="#4E496B" stop-opacity="0"/>
<stop offset="1" stop-color="white" stop-opacity="0"/>
</linearGradient>
</defs>
</svg>
